<?xml version="1.0" encoding="iso-8859-1"?>
<!-- Uploaded to: SVG Repo, www.svgrepo.com, Generator: SVG Repo Mixer Tools -->
<!DOCTYPE svg PUBLIC "-//W3C//DTD SVG 1.1//EN" "http://www.w3.org/Graphics/SVG/1.1/DTD/svg11.dtd">
<svg fill="#000000" version="1.1" id="Capa_1" xmlns="http://www.w3.org/2000/svg" xmlns:xlink="http://www.w3.org/1999/xlink" 
	 width="800px" height="800px" viewBox="0 0 32 32" xml:space="preserve">
<g>
	<path d="M32,15.059c-1.09-1.11-2.896-1.842-4.947-1.842c-2.475,0-4.6,1.062-5.525,2.578c-0.689-1.125-2.037-1.996-3.693-2.373
		v12.953c0,2.941-2.393,5.334-5.332,5.334c-2.941,0-5.334-2.393-5.334-5.334c0-0.828,0.672-1.5,1.5-1.5s1.5,0.672,1.5,1.5
		c0,1.287,1.047,2.334,2.334,2.334c1.286,0,2.332-1.047,2.332-2.334V13.307c-1.962,0.274-3.584,1.217-4.363,2.488
		c-0.928-1.518-3.051-2.578-5.527-2.578c-2.049,0-3.854,0.73-4.944,1.842C1.28,7.893,7.351,2.371,14.836,1.843V1.791
		c0-0.828,0.672-1.5,1.5-1.5s1.5,0.672,1.5,1.5v0.113C25.008,2.702,30.755,8.107,32,15.059z"/>
</g>
</svg>